<?xml version="1.0" encoding="utf-8"?>
<!-- Generator: Adobe Illustrator 16.0.0, SVG Export Plug-In . SVG Version: 6.00 Build 0)  -->
<!DOCTYPE svg PUBLIC "-//W3C//DTD SVG 1.1//EN" "http://www.w3.org/Graphics/SVG/1.1/DTD/svg11.dtd">
<svg version="1.1" id="Layer_2" xmlns="http://www.w3.org/2000/svg" xmlns:xlink="http://www.w3.org/1999/xlink" x="0px" y="0px"
	 width="61px" height="29px" viewBox="0 0 61 29" enable-background="new 0 0 61 29" xml:space="preserve">
<g>
	<path d="M8.556,20.326l-2.969-0.434L8.021,3.797L3.112,4.822L2.489,1.936l9.136-1.908L8.556,20.326z"/>
	<path d="M13.358,21.569L0,19.651l0.434-2.92l13.358,1.918L13.358,21.569z"/>
	<path d="M22.82,14.104c-3.956,0-7.173-3.163-7.173-7.052C15.646,3.164,18.864,0,22.82,0c3.955,0,7.173,3.164,7.173,7.052
		C29.993,10.941,26.775,14.104,22.82,14.104z M22.82,2.951c-2.3,0-4.171,1.84-4.171,4.101c0,2.261,1.871,4.101,4.171,4.101
		c2.3,0,4.171-1.84,4.171-4.101C26.991,4.791,25.12,2.951,22.82,2.951z"/>
	<path d="M37.048,29c-4.737,0-8.591-3.789-8.591-8.445c0-4.657,3.854-8.446,8.591-8.446c4.738,0,8.592,3.789,8.592,8.446
		C45.64,25.211,41.786,29,37.048,29z M37.048,15.059c-3.082,0-5.59,2.465-5.59,5.496c0,3.029,2.508,5.495,5.59,5.495
		s5.59-2.465,5.59-5.495C42.638,17.524,40.13,15.059,37.048,15.059z"/>
	<path d="M50.807,7.634c-1.655,0-3.003-1.324-3.003-2.952c0-1.628,1.348-2.952,3.003-2.952s3.003,1.324,3.003,2.952
		C53.81,6.31,52.462,7.634,50.807,7.634z M50.807,3.452c-0.69,0-1.251,0.552-1.251,1.231c0,0.678,0.561,1.231,1.251,1.231
		s1.252-0.553,1.252-1.231C52.059,4.003,51.497,3.452,50.807,3.452z"/>
	<path d="M57.997,16.419c-1.656,0-3.004-1.325-3.004-2.954c0-1.627,1.348-2.952,3.004-2.952s3.002,1.325,3.002,2.952
		C61,15.094,59.653,16.419,57.997,16.419z M57.997,12.235c-0.69,0-1.252,0.552-1.252,1.23c0,0.68,0.562,1.232,1.252,1.232
		c0.689,0,1.251-0.552,1.251-1.232C59.248,12.787,58.687,12.235,57.997,12.235z"/>
	<path d="M49.765,14.665l-1.238-1.218l10.428-10.25l1.238,1.217L49.765,14.665z"/>
</g>
</svg>
