<?xml version="1.0" encoding="utf-8"?>
<!-- Generator: Adobe Illustrator 16.0.0, SVG Export Plug-In . SVG Version: 6.00 Build 0)  -->
<!DOCTYPE svg PUBLIC "-//W3C//DTD SVG 1.1//EN" "http://www.w3.org/Graphics/SVG/1.1/DTD/svg11.dtd">
<svg version="1.1" id="Layer_1" xmlns="http://www.w3.org/2000/svg" xmlns:xlink="http://www.w3.org/1999/xlink" x="0px" y="0px"
	 width="18px" height="18px" viewBox="0 0 18 18" enable-background="new 0 0 18 18" xml:space="preserve">
<g>
	<path d="M9,17.002c-4.427,0-8.002-3.575-8.002-8.002c0-0.574,0.056-1.13,0.167-1.667h3.834C4.777,7.852,4.666,8.407,4.666,9
		c0,2.39,1.945,4.334,4.334,4.334c2.39,0,4.335-1.945,4.335-4.334c0-0.593-0.111-1.148-0.333-1.667h3.834
		C16.947,7.87,17.003,8.426,17.003,9C17.003,13.427,13.428,17.002,9,17.002z M12.131,5.999C11.335,5.184,10.223,4.666,9,4.666
		c-1.222,0-2.334,0.519-3.13,1.333H1.572C2.758,3.072,5.647,0.998,9,0.998c3.354,0,6.225,2.075,7.429,5.001H12.131z M12.001,9
		c0,1.667-1.352,3.001-3.001,3.001c-1.667,0-3-1.334-3-3.001c0-1.648,1.333-3.001,3-3.001C10.649,5.999,12.001,7.352,12.001,9z"/>
</g>
</svg>
