<?xml version="1.0" encoding="utf-8"?>
<!-- Generator: Adobe Illustrator 16.0.0, SVG Export Plug-In . SVG Version: 6.00 Build 0)  -->
<!DOCTYPE svg PUBLIC "-//W3C//DTD SVG 1.1//EN" "http://www.w3.org/Graphics/SVG/1.1/DTD/svg11.dtd">
<svg version="1.1" id="Layer_2" xmlns="http://www.w3.org/2000/svg" xmlns:xlink="http://www.w3.org/1999/xlink" x="0px" y="0px"
	 width="49px" height="59px" viewBox="0 0 49 59" enable-background="new 0 0 49 59" xml:space="preserve">
<g>
	<path d="M31.405,59L17.75,40.813l11.607-6.7L49,52.999L31.405,59z M22.18,41.729l10.3,13.72l10.882-3.712L28.912,37.844
		L22.18,41.729z"/>
	<path d="M15.575,54.26L0,49.857L15.523,0l9.675,4.592L15.575,54.26z M3.767,47.788l9.508,2.688l8.554-44.15l-4.49-2.131
		L3.767,47.788z"/>
	<path d="M37.328,33.122c-0.66,0-1.323-0.081-1.97-0.241c-2.158-0.532-3.983-1.884-5.14-3.809c-1.155-1.924-1.503-4.19-0.979-6.379
		c0.91-3.795,4.231-6.446,8.078-6.446c0.66,0,1.321,0.08,1.968,0.239c2.159,0.532,3.985,1.885,5.141,3.81
		c1.156,1.924,1.504,4.19,0.979,6.379C44.495,30.47,41.175,33.122,37.328,33.122z M37.317,19.266c-2.469,0-4.602,1.702-5.185,4.14
		c-0.337,1.406-0.113,2.861,0.628,4.096c0.742,1.236,1.915,2.105,3.301,2.446c0.417,0.104,0.843,0.155,1.267,0.155
		c2.468,0,4.6-1.703,5.184-4.141c0.337-1.405,0.113-2.86-0.628-4.096c-0.742-1.236-1.915-2.104-3.302-2.446
		C38.167,19.318,37.741,19.266,37.317,19.266z"/>
</g>
</svg>
