<?xml version="1.0" encoding="utf-8"?>
<!-- Generator: Adobe Illustrator 16.0.0, SVG Export Plug-In . SVG Version: 6.00 Build 0)  -->
<!DOCTYPE svg PUBLIC "-//W3C//DTD SVG 1.1//EN" "http://www.w3.org/Graphics/SVG/1.1/DTD/svg11.dtd">
<svg version="1.1" id="Layer_2" xmlns="http://www.w3.org/2000/svg" xmlns:xlink="http://www.w3.org/1999/xlink" x="0px" y="0px" viewBox="0 0 113 19" enable-background="new 0 0 113 19" xml:space="preserve">
<g>
	<path d="M75.194,5.982c0,0-0.014,1.82-0.034,4.55c-0.003,0.682-0.005,1.422-0.007,2.204c-0.004,0.694,0.08,1.396,0.316,2.037
		c0.234,0.639,0.618,1.184,1.152,1.538c0.268,0.179,0.574,0.311,0.91,0.402c0.327,0.086,0.731,0.129,1.062,0.132
		c0.817-0.005,1.483-0.173,2.024-0.535c0.534-0.354,0.918-0.898,1.152-1.538c0.236-0.64,0.32-1.343,0.316-2.037
		c-0.002-0.782-0.004-1.522-0.006-2.204c-0.021-2.729-0.035-4.55-0.035-4.55h2.309c0,0-0.015,1.82-0.035,4.55
		c-0.002,0.682-0.004,1.422-0.006,2.204c-0.002,0.865-0.106,1.83-0.469,2.794c-0.353,0.958-1.019,1.945-2.005,2.585
		c-0.968,0.652-2.179,0.89-3.194,0.885c-0.588,0-1.106-0.056-1.667-0.194c-0.55-0.142-1.093-0.369-1.579-0.69
		c-0.986-0.641-1.653-1.627-2.005-2.585c-0.361-0.964-0.467-1.929-0.469-2.794c-0.002-0.782-0.004-1.522-0.006-2.204
		c-0.021-2.729-0.034-4.55-0.034-4.55H75.194z"/>
	<path d="M10.481,13.889H8.33V5.45c0-1.749-0.797-2.612-2.383-2.612c-1.053,0-1.948,0.532-2.691,1.623
		C2.511,5.526,2.153,6.944,2.153,8.744v5.145H0V1.117h2.153v2.356c0.949-1.521,2.614-2.56,4.381-2.56
		c2.642,0,3.948,1.545,3.948,4.08V13.889z"/>
	<path d="M13.441,7.503c0-1.825,0.59-3.372,1.741-4.665c1.154-1.292,2.692-1.925,4.612-1.925c1.923,0,3.46,0.632,4.614,1.925
		c1.153,1.292,1.744,2.839,1.744,4.665c0,1.824-0.591,3.369-1.744,4.662c-1.154,1.292-2.691,1.926-4.614,1.926
		c-1.92,0-3.458-0.633-4.612-1.926C14.031,10.872,13.441,9.327,13.441,7.503z M15.646,7.503c0,1.292,0.384,2.381,1.126,3.292
		c0.745,0.913,1.769,1.37,3.023,1.37c1.258,0,2.282-0.457,3.027-1.37c0.741-0.911,1.125-2,1.125-3.292
		c0-1.292-0.385-2.384-1.125-3.295c-0.745-0.913-1.769-1.369-3.027-1.369c-1.254,0-2.278,0.457-3.023,1.369
		C16.029,5.119,15.646,6.21,15.646,7.503z"/>
	<path d="M27.352,3.042V1.117h11.893v1.925h-6.305V9.58c0,1.725,0.744,2.585,2.23,2.585c1.154,0,2.205-0.507,3.177-1.521
		l0.796,1.799c-1.104,1.09-2.435,1.647-3.973,1.647c-2.845,0-4.382-1.495-4.382-4.436V3.042H27.352z"/>
	<path d="M53.865,7.958H43.768c0.126,2.534,1.689,4.207,3.971,4.207c1.845,0,3.229-0.836,4.152-2.534l1.715,0.887
		c-1.254,2.382-3.201,3.573-5.867,3.573c-1.845,0-3.331-0.633-4.484-1.875c-1.127-1.243-1.691-2.813-1.691-4.713
		c0-1.852,0.564-3.422,1.667-4.689c1.125-1.268,2.639-1.9,4.509-1.9c1.922,0,3.436,0.583,4.511,1.773
		c1.077,1.167,1.615,2.636,1.615,4.385V7.958z M43.919,6.031h7.664c-0.384-2.026-1.768-3.193-3.844-3.193
		C45.716,2.838,44.355,4.03,43.919,6.031z"/>
	<path d="M60.249,17.056v1.698h-2.152V0h2.152v7.604c0.797-1.04,2.229-1.825,3.948-1.825c3.716,0,5.918,2.611,5.918,6.59
		s-2.202,6.588-5.918,6.588C62.531,18.957,61.045,18.146,60.249,17.056z M67.913,12.369c0-1.395-0.36-2.509-1.051-3.371
		c-0.692-0.862-1.665-1.293-2.87-1.293c-1.207,0-2.179,0.432-2.87,1.293c-0.692,0.861-1.052,1.976-1.052,3.371
		c0,1.394,0.359,2.509,1.052,3.371c0.691,0.861,1.663,1.292,2.87,1.292c1.205,0,2.178-0.431,2.87-1.292
		C67.552,14.877,67.913,13.763,67.913,12.369z"/>
	<path d="M101.929,0h2.152v11.329l5.51-5.347h2.819l-6.023,5.854L113,18.754h-2.819l-6.099-6.411v6.411h-2.152V0z"/>
	<path d="M0.001,18.754v-1.742h53.656v1.742H0.001z"/>
	<path d="M89.632,5.982c0,0-0.014,1.82-0.034,4.55c-0.002,0.682-0.004,1.422-0.007,2.204c-0.004,0.694,0.08,1.396,0.316,2.037
		c0.234,0.639,0.618,1.184,1.152,1.538c0.267,0.179,0.574,0.311,0.91,0.402c0.326,0.086,0.731,0.129,1.063,0.132
		c0.816-0.005,1.482-0.173,2.022-0.535c0.535-0.354,0.919-0.898,1.152-1.538c0.237-0.64,0.322-1.343,0.317-2.037
		c-0.002-0.782-0.004-1.522-0.006-2.204c-0.021-2.729-0.035-4.55-0.035-4.55h2.309c0,0-0.015,1.82-0.035,4.55
		c-0.002,0.682-0.004,1.422-0.006,2.204c-0.002,0.865-0.106,1.83-0.469,2.794c-0.353,0.958-1.02,1.945-2.006,2.585
		c-0.968,0.652-2.179,0.89-3.194,0.885c-0.587,0-1.105-0.056-1.666-0.194c-0.55-0.142-1.094-0.369-1.578-0.69
		c-0.986-0.641-1.655-1.627-2.006-2.585c-0.361-0.964-0.468-1.929-0.469-2.794c-0.003-0.782-0.005-1.522-0.007-2.204
		c-0.021-2.729-0.034-4.55-0.034-4.55H89.632z"/>
</g>
</svg>
