<?xml version="1.0" encoding="utf-8"?>
<!-- Generator: Adobe Illustrator 16.0.0, SVG Export Plug-In . SVG Version: 6.00 Build 0)  -->
<!DOCTYPE svg PUBLIC "-//W3C//DTD SVG 1.1//EN" "http://www.w3.org/Graphics/SVG/1.1/DTD/svg11.dtd">
<svg version="1.1" id="Layer_2" xmlns="http://www.w3.org/2000/svg" xmlns:xlink="http://www.w3.org/1999/xlink" x="0px" y="0px"
	 width="47px" height="42px" viewBox="0 0 47 42" enable-background="new 0 0 47 42" xml:space="preserve">
<g>
	<path d="M30.915,0H11.212L0,36.798L39.452,42L47,14.321L30.915,0z M31.06,4.13l10.608,9.445H29.062L31.06,4.13z M37.239,38.704
		L3.896,34.307l9.546-31.33h15.303l-2.764,13.08h17.433L37.239,38.704z"/>
	<path d="M23.573,28.495c4.146,0,7.674-2.628,9.006-6.288L29.8,21.081c-0.879,2.574-3.335,4.436-6.227,4.436
		c-3.105,0-5.708-2.148-6.395-5.021l-2.919,0.689C15.261,25.369,19.052,28.495,23.573,28.495z"/>
</g>
</svg>
